<svg width="87" height="87" viewBox="0 0 87 87" fill="none" xmlns="http://www.w3.org/2000/svg">
<path d="M58.0814 36.2954C56.9687 35.4498 55.5149 34.9899 53.8534 34.9899C54.1501 34.8119 54.4468 34.6339 54.7138 34.4262C55.8116 33.5954 56.6275 32.4679 57.0281 31.2663C57.31 30.4058 57.0874 29.9015 56.8501 29.6196C56.6127 29.3377 56.2715 29.2042 55.8709 29.2042C55.3962 29.2042 54.9363 29.4267 54.699 29.5602C52.7852 30.658 51.3166 32.5124 50.6935 34.6339C49.5809 33.2097 48.0232 32.0822 46.2875 31.2514C46.9995 31.2366 47.6226 31.1921 48.2012 31.0734C50.3968 30.6729 52.1028 29.4267 52.7556 27.7652C53.1413 26.7861 53.1413 26.0147 52.7704 25.4509C52.533 25.1097 52.0435 24.6943 50.9902 24.6943C50.2929 24.6943 49.4177 24.8723 48.5127 25.2136C47.7116 25.5103 46.9699 25.896 46.5248 26.2372C45.7237 26.8603 44.9968 27.5872 44.3589 28.2251C44.2699 28.3141 44.1215 28.4773 43.9435 28.685C43.7655 28.8927 43.4094 29.308 43.1127 29.6048C42.5787 27.1273 41.7776 24.0267 39.5078 22.0982C38.3952 21.1487 37.0452 20.8372 36.0661 21.3268C35.0276 21.846 34.6122 23.0773 34.6716 24.0713C34.7754 25.7328 35.9325 27.335 37.8759 28.4921C38.5287 28.8778 39.2111 29.2042 39.8787 29.5157C39.9677 29.5602 40.0567 29.6048 40.1457 29.6493C39.8193 29.6344 39.493 29.6196 39.1814 29.6196C36.3331 29.6196 33.7963 30.4207 32.0606 31.8597C29.3606 34.0998 28.7227 37.6602 28.0996 41.0871C28.0106 41.5915 27.9216 42.1108 27.8177 42.6003C27.0315 46.5465 25.7408 49.647 23.8568 52.0799C22.1656 54.2459 19.9403 55.8481 17.5667 56.5898C17.0178 56.7678 16.6321 57.2426 16.6024 57.8211C16.5727 58.3997 16.8843 58.9338 17.4332 59.1711C18.2788 59.542 19.1392 59.8981 19.9996 60.2393C23.115 61.4854 26.0672 62.5535 28.9304 63.4585C29.4496 65.7431 31.2892 67.642 33.5589 68.2057C33.7963 68.2651 34.0337 68.3096 34.271 68.3392C34.5232 68.3689 34.7606 68.3837 35.0128 68.3837C35.7249 68.3837 36.4221 68.2651 37.0897 68.0425C37.3122 67.9684 37.5199 67.8793 37.7276 67.7903C37.7869 67.7607 37.8314 67.731 37.8908 67.7013C38.0391 67.6272 38.2023 67.553 38.3507 67.464C38.4248 67.4195 38.499 67.3601 38.5732 67.3156C38.6919 67.2414 38.8106 67.1524 38.9292 67.0634C39.0183 66.9892 39.1073 66.9151 39.1963 66.8409C39.2853 66.7667 39.3743 66.6925 39.4633 66.6184C39.5672 66.5145 39.671 66.3958 39.7748 66.292C42.549 66.8261 45.2935 67.2266 47.9193 67.4343C48.8094 67.5085 49.6254 67.5381 50.6193 67.5381C51.0495 67.5381 51.4946 67.5381 51.9841 67.5233H52.3402C52.6221 67.5233 52.9336 67.4788 53.2748 67.4491C53.8385 67.375 54.2984 66.9892 54.4468 66.4403C54.5951 65.8914 54.4023 65.3129 53.9424 64.9568C52.6369 63.9629 51.6874 62.9393 50.9309 61.7524C52.2957 61.4261 53.6012 61.0849 54.8473 60.714C55.6929 61.4706 56.8056 61.8711 57.9182 61.8711C58.4374 61.8711 58.9566 61.7821 59.4462 61.6041C60.9742 61.0404 62.1017 59.631 62.3539 58.0437C64.1341 57.2871 65.8253 56.4563 67.3978 55.581C68.3918 55.0173 69.0594 54.5574 69.9643 53.9195C70.1127 53.8305 70.261 53.697 70.4242 53.5486L70.4835 53.4893C70.8396 53.1777 70.9731 52.703 70.8247 52.258C70.6764 51.8129 70.2758 51.5014 69.8011 51.4865C68.1544 51.3975 66.9083 50.9822 65.6324 50.1365C65.2467 49.8695 64.8759 49.558 64.5495 49.1871C63.2292 47.7184 62.6061 45.6563 61.9385 43.4756C61.1671 40.7756 60.3215 38.0163 58.0814 36.2954ZM60.8555 43.7871C61.1077 44.6031 61.3599 45.419 61.6418 46.2201C58.0072 47.9706 54.2242 49.4245 50.3671 50.5668C50.3968 50.4629 50.4265 50.3591 50.4561 50.2701C50.5303 50.003 50.6193 49.736 50.6935 49.469C50.7083 49.4393 50.7083 49.4096 50.7232 49.38C50.7973 49.1574 50.8567 48.9201 50.9309 48.6975C52.1028 44.8849 53.3193 40.9239 52.0435 37.141C52.0138 37.0668 51.9841 37.0075 51.9545 36.9333C51.8951 36.7553 51.821 36.5773 51.7468 36.3992C52.444 36.236 53.1413 36.1619 53.8089 36.1619C55.2182 36.1619 56.4347 36.5327 57.3545 37.23C59.3127 38.7135 60.0693 41.1761 60.8555 43.7871ZM48.4534 53.5635C48.4089 53.8305 48.3644 54.1124 48.3199 54.3794C48.305 54.4981 48.2902 54.6019 48.2754 54.7058C48.2605 54.8838 48.2309 55.047 48.216 55.225C48.216 55.2695 48.2012 55.314 48.2012 55.3585C48.1864 55.4624 48.1864 55.5662 48.1864 55.6552C48.1864 55.7442 48.1715 55.8184 48.1715 55.9074C48.1715 56.0854 48.1715 56.2486 48.1715 56.4118C48.1715 56.486 48.1715 56.5453 48.1715 56.6195C48.1715 56.8124 48.1864 57.0052 48.2012 57.1981C40.6353 56.575 32.6392 54.6316 25.5331 51.7239C26.2601 50.6261 26.898 49.4096 27.432 48.0596C34.2562 50.4778 41.3325 52.2135 48.4979 53.2519C48.4831 53.3706 48.4682 53.4745 48.4534 53.5635ZM50.0111 51.9019C54.1352 50.7151 58.2001 49.1723 62.0869 47.3179C62.4132 48.0596 62.7989 48.7569 63.2588 49.38C59.0605 51.7091 54.2242 53.5635 49.4622 54.6613C49.566 53.8305 49.744 52.9255 50.0111 51.9019ZM55.2775 30.569C55.5001 30.4504 55.7078 30.3762 55.8709 30.3762C55.9006 30.3762 55.9451 30.3762 55.9748 30.4058C55.9896 30.4355 56.0341 30.5839 55.9303 30.9102C55.6039 31.8894 54.9215 32.824 54.0166 33.5064C53.4083 33.9663 52.7111 34.3372 51.9248 34.6042C52.5182 32.913 53.7198 31.4443 55.2775 30.569ZM44.8336 29.4564C44.982 29.2784 45.1006 29.13 45.1748 29.0559C45.7979 28.4328 46.4952 27.7355 47.2369 27.157C47.5781 26.8899 48.216 26.5636 48.8984 26.3114C50.2633 25.807 51.5391 25.7476 51.7913 26.1185C51.9248 26.3262 51.8803 26.7712 51.6578 27.335C51.0644 28.8482 49.3732 29.6641 47.9787 29.9163C47.3853 30.0201 46.7473 30.0795 45.9759 30.0795C45.427 30.0795 44.8633 30.0498 44.3144 30.0201C44.4776 29.8569 44.6408 29.6641 44.8336 29.4564ZM38.4545 27.4833C37.6979 27.0383 35.9325 25.7921 35.8287 23.9971C35.799 23.4037 36.0067 22.6471 36.5705 22.3652C36.7336 22.291 36.8968 22.2465 37.0897 22.2465C37.5792 22.2465 38.2023 22.5284 38.7364 22.9883C40.4424 24.4421 41.2138 26.6229 41.8073 29.1597C41.3325 28.9075 40.843 28.6701 40.3534 28.4476C39.7007 28.1361 39.0628 27.8394 38.4545 27.4833ZM28.96 42.8228C29.0639 42.3184 29.1529 41.7992 29.2419 41.2948C29.8205 38.0608 30.4287 34.7229 32.8023 32.7498C34.3304 31.474 36.5853 30.7767 39.1666 30.7767C40.1161 30.7767 41.11 30.8806 42.104 31.0734L42.1188 31.0883C41.7331 31.5036 41.199 31.8003 40.754 31.9784C40.4128 32.1119 40.0715 32.2306 39.7007 32.3492C39.1369 32.5273 38.5732 32.7201 38.0243 33.002C36.8523 33.6102 36.0957 34.5894 36.0067 35.6278C35.9622 36.0432 36.0364 36.4289 36.0957 36.7998C36.1699 37.2448 36.2293 37.6305 36.0957 37.9273C35.9474 38.2685 35.5617 38.5207 35.1463 38.7877L34.9089 38.9509L35.5617 39.9152L35.7842 39.7668C36.3034 39.4256 36.8968 39.0547 37.1787 38.3723C37.4309 37.7641 37.327 37.1558 37.238 36.6069C37.1935 36.2954 37.1342 35.9838 37.1639 35.7168C37.2232 35.0789 37.7424 34.441 38.5584 34.0256C39.0183 33.7883 39.5375 33.6251 40.0715 33.447C40.4424 33.3284 40.8281 33.1948 41.199 33.0465C41.7776 32.8091 42.2671 32.5124 42.6677 32.1712C42.7419 32.5569 42.727 32.9427 42.6083 33.2987C42.4897 33.6399 42.282 33.9663 42.0595 34.3223C41.7034 34.8861 41.3029 35.524 41.2584 36.3102C41.2287 36.9778 41.466 37.5712 41.6737 38.0904C41.7776 38.3426 41.8814 38.5948 41.9408 38.8322C42.104 39.4404 42.0595 40.0783 41.8221 40.6569L42.9051 41.0871C43.2314 40.2712 43.2908 39.3663 43.0682 38.5207C42.9792 38.2091 42.8754 37.9272 42.7567 37.6454C42.5787 37.1855 42.4007 36.7553 42.4303 36.3547C42.46 35.88 42.7419 35.4201 43.0534 34.9306C43.3056 34.5448 43.5578 34.1443 43.721 33.6844C43.9732 32.9575 43.9435 32.1564 43.6913 31.4295C46.3468 32.2306 48.8243 33.7289 50.2039 35.88L50.3523 36.147V36.1767H50.3819C50.4265 36.2509 50.4561 36.3102 50.5006 36.3844C50.5748 36.5179 50.649 36.6514 50.7083 36.7998C50.7825 36.963 50.8567 37.141 50.916 37.319C50.9308 37.3784 50.9605 37.4229 50.9754 37.4822C52.1177 40.9091 51.0199 44.514 49.8479 48.3267C49.6699 48.8904 49.5067 49.469 49.3287 50.0475C49.2396 50.3442 49.1506 50.6409 49.0765 50.9376C49.0468 51.0415 49.0171 51.1602 48.9874 51.264L48.9726 51.3234C48.9578 51.3975 48.9429 51.4569 48.9281 51.531C48.8836 51.7239 48.8243 51.9168 48.7798 52.0948C41.6737 51.0712 34.6419 49.3355 27.8771 46.947C28.2925 45.7008 28.6633 44.3212 28.96 42.8228ZM36.3034 65.5354L38.3507 66.0398C38.2765 66.0991 38.2172 66.1585 38.143 66.203C38.0688 66.2475 38.0095 66.3068 37.9353 66.3513C37.8166 66.4255 37.7128 66.4848 37.5941 66.5442C37.3567 66.6777 37.1045 66.7815 36.8523 66.8854C36.8375 66.8854 36.8227 66.9002 36.8078 66.9002C36.6595 66.9596 36.5111 66.9892 36.3479 67.0337C36.2886 67.0486 36.2293 67.0634 36.1699 67.0783C36.0216 67.1079 35.888 67.1376 35.7397 67.1524C35.6655 67.1673 35.5913 67.1673 35.5023 67.1821C35.3688 67.1969 35.2501 67.1969 35.1166 67.2118C35.0128 67.2118 34.8941 67.2118 34.7902 67.2118C34.6864 67.2118 34.5826 67.2118 34.4935 67.1969C34.2858 67.1673 34.0633 67.1376 33.8556 67.0931C33.6479 67.0337 33.4254 66.9744 33.2326 66.8854C33.1732 66.8557 33.099 66.8261 33.0397 66.7964C32.9062 66.737 32.7727 66.6629 32.6392 66.5887C32.565 66.5442 32.4908 66.4997 32.4315 66.4552C32.3128 66.381 32.1941 66.292 32.0754 66.203C32.0161 66.1585 31.9419 66.0991 31.8826 66.0546C31.7639 65.9508 31.6452 65.8469 31.5414 65.7431C31.4968 65.6986 31.4375 65.6541 31.393 65.5947C31.2446 65.4316 31.0963 65.2684 30.9628 65.0903C30.9479 65.0607 30.9331 65.0458 30.9183 65.0162C30.7996 64.853 30.6958 64.6898 30.6067 64.5266C30.5771 64.4673 30.5474 64.3931 30.5029 64.3338C30.4584 64.2447 30.4287 64.1557 30.3842 64.0667L35.1315 65.2387C35.5023 65.3425 35.9029 65.4464 36.3034 65.5354ZM53.2451 65.8618C53.349 65.9508 53.349 66.0546 53.3341 66.0991C53.3193 66.1585 53.2748 66.2475 53.1413 66.2623C52.8446 66.292 52.5479 66.3365 52.3253 66.3365H51.9693C51.4797 66.3365 51.0495 66.3513 50.6193 66.3513C49.655 66.3513 48.8836 66.3217 48.0083 66.2475C44.9375 65.9953 41.7182 65.5206 38.4545 64.8233C37.8166 64.6898 37.1935 64.5414 36.5556 64.3931L35.4133 64.1112C30.7254 62.9393 25.8002 61.3074 20.4299 59.1711C19.5694 58.8299 18.7238 58.4739 17.8782 58.103C17.7744 58.0585 17.7595 57.9547 17.7595 57.8953C17.7595 57.836 17.7892 57.7321 17.9079 57.7025C20.504 56.9014 22.937 55.1508 24.7617 52.792C24.7914 52.7624 24.8062 52.7327 24.8359 52.703C32.1793 55.7591 40.5018 57.7618 48.3495 58.3849C48.3644 58.4887 48.394 58.5926 48.4089 58.6964C48.4237 58.7706 48.4385 58.8448 48.4682 58.9338C48.5127 59.097 48.5424 59.2453 48.5869 59.3937C48.6017 59.4678 48.6314 59.542 48.6462 59.6162C48.7056 59.809 48.7798 60.0019 48.8539 60.1948C48.8688 60.2244 48.8688 60.2393 48.8836 60.2689C48.9133 60.3579 48.9578 60.447 49.0023 60.5211C49.0765 60.6843 49.1358 60.8475 49.21 60.9959C49.2842 61.1442 49.3583 61.2926 49.4325 61.4261C49.4622 61.4854 49.4918 61.5596 49.5215 61.6189L49.6402 61.8563C49.655 61.8711 49.655 61.886 49.6699 61.9008L49.7292 62.0195H49.744C50.6045 63.4733 51.7023 64.6898 53.2451 65.8618ZM59.0605 60.4915C58.1704 60.8178 57.1171 60.714 56.2715 60.2689C57.933 59.7497 59.5055 59.2008 61.0039 58.5926C60.6478 59.453 59.9358 60.1799 59.0605 60.4915ZM65.0242 51.086C66.4781 52.0651 67.9022 52.5398 69.7714 52.5992L69.7121 52.6585C69.5934 52.7624 69.4747 52.8662 69.3412 52.9552C68.4215 53.5931 67.8132 54.0234 66.8638 54.5574C65.0242 55.5959 62.9918 56.5602 60.8555 57.4206C57.7253 58.6816 54.2836 59.7497 50.3819 60.6843C50.3523 60.6101 50.3078 60.536 50.2781 60.4618C50.1891 60.2838 50.1149 60.1057 50.0407 59.9129C50.0259 59.8981 50.0259 59.8684 50.0111 59.8536C49.8924 59.5568 49.7885 59.2453 49.7144 58.9338C49.6995 58.8744 49.6847 58.8151 49.6699 58.7558C49.5957 58.4294 49.5215 58.1178 49.477 57.7766C49.388 57.1832 49.3732 56.5453 49.4028 55.8777C54.4616 54.7503 59.6391 52.7772 64.0896 50.2849C64.3566 50.5668 64.6682 50.8486 65.0242 51.086Z" fill="#00528C"/>
<path d="M72.4428 49.7806C71.7901 49.4394 71.0631 49.3207 70.4252 49.2169L70.2472 50.374C70.8258 50.4631 71.4192 50.5521 71.9087 50.8191C72.2648 51.012 72.6653 51.368 72.7098 51.8279C72.7543 52.1839 72.5763 52.6141 72.1609 53.163C71.5675 53.9641 70.8406 54.6614 70.0247 55.24L70.6923 56.1894C71.612 55.5367 72.4131 54.7652 73.0956 53.8603C73.4664 53.3559 73.956 52.5845 73.867 51.7092C73.7928 50.9229 73.2587 50.2109 72.4428 49.7806Z" fill="#00528C"/>
<path d="M74.2821 48.6976L74.3415 49.8696C74.6827 49.8547 75.0535 50.1218 75.2167 50.5075C75.3799 50.8932 75.3651 51.3976 75.1871 51.9168C75.009 52.436 74.6827 52.9404 74.3711 53.43L75.3502 54.0679C75.6915 53.5487 76.0623 52.9553 76.2997 52.3025C76.5667 51.5014 76.5667 50.7152 76.2997 50.0624C75.9437 49.202 75.1277 48.6382 74.2821 48.6976Z" fill="#00528C"/>
<path d="M15.3128 55.9817C15.6836 55.6257 16.2474 55.4625 16.7814 55.2844L20.06 54.2608L19.704 53.1482L16.4254 54.1718C15.8172 54.3647 15.0754 54.5872 14.5117 55.1213C13.7848 55.7888 13.5622 56.7383 13.5029 57.4059C13.3397 59.1416 14.0666 60.907 15.4018 62.0196L16.1435 61.1295C15.1199 60.269 14.5265 58.8597 14.66 57.5246C14.7342 56.8718 14.9567 56.3229 15.3128 55.9817Z" fill="#00528C"/>
<path d="M14.0513 53.2965C14.8969 52.9404 15.8315 52.7327 16.7513 52.5547L16.5139 51.4124C15.5496 51.6201 14.5408 51.8278 13.5914 52.2283C12.4787 52.7031 11.6183 53.4003 11.0842 54.2459C10.4167 55.2992 10.298 56.575 10.7727 57.5838L11.826 57.0943C11.5293 56.4415 11.6183 55.5811 12.0634 54.869C12.5826 54.0531 13.4282 53.5635 14.0513 53.2965Z" fill="#00528C"/>
</svg>
