<svg width="87" height="87" viewBox="0 0 87 87" fill="none" xmlns="http://www.w3.org/2000/svg">
<path d="M44.7262 33.5998L44.8942 34.1037C44.9614 34.2884 45.0286 34.4732 45.0957 34.658C45.2133 34.9939 45.3309 35.313 45.4485 35.649C45.5493 35.9177 45.65 36.1865 45.7508 36.4384C45.8684 36.7408 45.9692 37.0263 46.0868 37.3119C46.1875 37.5806 46.2883 37.8494 46.4059 38.1181C46.5235 38.4037 46.6411 38.6892 46.7586 38.958C46.8594 39.1931 46.9602 39.4283 47.061 39.6634C47.2793 40.1673 47.4977 40.6544 47.6993 41.108V41.1248C48.3543 42.5357 49.1438 44.081 50.3868 45.1392C50.3868 45.1392 50.4036 45.1392 50.4036 45.156C50.5883 45.324 50.7899 45.4751 51.0082 45.6095C51.2266 45.7607 51.4618 45.8951 51.7137 46.0126C52.4528 46.3486 53.2926 46.5333 54.1996 46.5333C55.2075 46.5333 56.2153 46.3318 57.2063 46.0462L59.9442 54.5287C60.1457 55.1669 60.1793 55.7884 59.9946 56.3763C59.7426 57.2162 58.886 57.888 58.0629 58.5599C57.9286 58.6607 57.7942 58.7783 57.6598 58.8791C57.2399 59.215 57.1223 59.8029 57.3575 60.2732C57.559 60.6595 57.9454 60.8947 58.3821 60.8947C58.4829 60.8947 58.5836 60.8779 58.6844 60.8611C61.7414 60.0548 65.1848 58.7447 67.5364 57.7873C67.9059 57.6361 68.477 57.3841 69.0481 57.0986C69.5184 56.8466 69.7704 56.3091 69.636 55.7884C69.5016 55.2677 69.0313 54.915 68.4938 54.9318C67.0661 54.9822 65.9407 54.7974 65.2352 54.4279C64.009 53.7896 63.3539 51.8244 62.8164 50.2287C62.7157 49.9263 62.6149 49.624 62.5141 49.3552L60.8512 44.7361C62.3293 44.081 63.7067 43.2412 64.6137 42.0654C64.6641 41.9982 64.6977 41.9478 64.7481 41.8806C64.7985 41.7966 64.8657 41.7126 64.9161 41.6287C65 41.4775 65.1008 41.3263 65.168 41.1751C65.3192 40.8728 65.4368 40.5369 65.5207 40.2009C65.5207 40.1841 65.5375 40.1673 65.5375 40.1505C65.5543 40.1001 65.5543 40.033 65.5711 39.9826C65.8063 38.8068 65.6215 37.6646 65.3696 36.4048C65.2688 35.8841 65.1344 35.3466 65.0168 34.8259L64.8993 34.2884H64.8825C64.1266 31.2482 63.1524 28.4095 62.1446 25.4533C61.8086 24.479 61.4727 23.488 61.1368 22.4802L60.9016 21.7915L60.2297 22.0939C57.3575 23.3705 43.836 27.9224 43.7016 27.9728L43.1137 28.1744L43.2817 28.779C43.6848 30.4083 44.1887 32.0208 44.7262 33.5998ZM64.0258 36.6568C64.1098 37.0599 64.177 37.4462 64.2442 37.8326C64.345 38.538 64.3618 39.2099 64.2106 39.8314C64.2106 39.8482 64.1938 39.865 64.1938 39.8818C64.1602 39.9994 64.1266 40.1337 64.0762 40.2513C64.0762 40.2681 64.0594 40.2849 64.0594 40.2849C64.009 40.4025 63.9586 40.5201 63.9082 40.6376C63.8914 40.6712 63.8579 40.7216 63.8411 40.7552C63.7907 40.8392 63.7403 40.9232 63.6899 41.0072C62.6653 42.5693 60.4985 43.5099 58.4325 44.2322C58.1973 44.3162 57.9454 44.4001 57.7102 44.4841C56.5344 44.8705 55.3082 45.2064 54.1661 45.2064C53.4438 45.2064 52.8055 45.072 52.2344 44.8033C50.5883 44.0474 49.6309 42.2166 48.875 40.5537C48.6735 40.1169 48.4719 39.6802 48.2871 39.2099C48.1864 38.9916 48.1024 38.7564 48.0016 38.5212C47.9008 38.2861 47.8 38.0509 47.6993 37.799C47.5985 37.547 47.4977 37.2783 47.3801 37.0095C47.2793 36.7744 47.1953 36.5224 47.0946 36.2705C46.9938 36.0185 46.893 35.7498 46.809 35.4978C46.7082 35.2123 46.6075 34.9435 46.5067 34.658C46.4563 34.5068 46.4059 34.3556 46.3555 34.2212C46.725 34.1037 47.145 34.0533 47.5481 34.0869C48.3711 34.1708 49.1606 34.5236 49.9836 34.8763C50.202 34.9771 50.4371 35.0779 50.6555 35.1619C51.3274 35.4474 52.3352 35.8337 53.3934 35.8337C53.7797 35.8337 54.1493 35.7833 54.502 35.6826C55.3082 35.4474 55.9801 34.9603 56.6352 34.5068C57.4414 33.9357 58.1805 33.3982 58.9532 33.5326C59.4403 33.5998 59.8938 33.9525 60.3809 34.3052C60.6328 34.49 60.8848 34.6748 61.1704 34.8595C61.943 35.3298 62.8332 35.5818 63.7907 35.6322C63.8578 35.9681 63.9418 36.304 64.0258 36.6568ZM61.2207 49.7919C61.3215 50.0607 61.4055 50.3462 61.5063 50.6318C62.111 52.4458 62.8668 54.6966 64.5801 55.5701C65.3528 55.9732 66.3942 56.1915 67.6875 56.2251C67.4188 56.3427 67.1836 56.4435 66.9989 56.5275C64.8993 57.3841 61.9094 58.5263 59.1547 59.3326C60.0114 58.6439 60.9184 57.8376 61.2375 56.729C61.4895 55.8892 61.4727 54.9822 61.1704 54.0919L58.4325 45.6263C58.5836 45.5759 58.718 45.5255 58.8692 45.4751C59.1043 45.3912 59.3395 45.3072 59.5746 45.2232L61.2207 49.7919ZM60.045 23.572C60.3137 24.3447 60.5657 25.1173 60.8344 25.8732C61.8086 28.6951 62.7325 31.3994 63.4547 34.2548C62.8668 34.1876 62.3125 34.0029 61.8254 33.7173C61.5903 33.5662 61.3551 33.3982 61.1368 33.2302C60.5657 32.8103 59.9274 32.34 59.1211 32.2056C57.8278 32.004 56.8032 32.7263 55.8289 33.415C55.2411 33.8349 54.6868 34.238 54.0989 34.406C53.1582 34.6748 51.8985 34.2548 51.1426 33.9357C50.9243 33.8517 50.7059 33.7509 50.4875 33.6501C49.5973 33.2638 48.6735 32.8607 47.6489 32.7431C47.061 32.6759 46.4395 32.7599 45.902 32.9447C45.4653 31.6513 45.0453 30.3244 44.659 28.9806C47.1786 28.1576 56.6352 24.9494 60.045 23.572Z" fill="#00528C"/>
<path d="M18.0359 64.5564C20.9082 65.9001 24.3852 67.0927 26.8039 67.8654C27.1902 67.983 27.7781 68.1677 28.3996 68.3021C28.4836 68.3189 28.5676 68.3357 28.6516 68.3357C29.0883 68.3357 29.4914 68.0837 29.6762 67.6806C29.9113 67.1935 29.7769 66.6224 29.357 66.3033C28.2316 65.4298 27.4926 64.5732 27.1734 63.8341C26.6359 62.5576 27.3918 60.6259 27.9965 59.0638C28.1141 58.7615 28.2316 58.4759 28.3324 58.2072L30.0121 53.6048C31.0367 53.9072 32.1117 54.1087 33.1531 54.1087C34.4801 54.1087 35.6223 53.756 36.5461 53.0673C36.798 52.8826 37.0332 52.6642 37.2348 52.4458C37.9234 51.7068 38.3937 50.8333 38.7969 50.0775C39.2504 49.2208 39.6703 48.3642 40.0734 47.5244C40.0902 47.474 40.1238 47.4236 40.1406 47.3732C40.3086 47.0205 40.4766 46.6677 40.6277 46.2982C40.6781 46.1974 40.7117 46.0798 40.7621 45.979C40.8965 45.6599 41.0309 45.3576 41.1652 45.0384C41.2156 44.9208 41.266 44.8033 41.3164 44.7025C41.4508 44.3833 41.5851 44.0474 41.7195 43.7283C41.7531 43.6443 41.7867 43.5603 41.8203 43.4763C42.1562 42.6197 42.4922 41.7798 42.8113 40.94L43.1305 40.1169C43.1977 39.949 43.2648 39.781 43.332 39.613C43.7016 38.6388 44.0711 37.6646 44.4574 36.6736L44.7262 36.0017L44.0207 35.8001C40.9973 34.9435 27.6941 29.7701 27.5598 29.7197L26.9719 29.4845L26.7199 30.0556C25.2418 33.3814 23.9316 36.7912 22.9574 39.8986L22.7559 40.604C22.7391 40.6544 22.7391 40.688 22.7223 40.7384C22.6047 41.1415 22.4871 41.5279 22.3863 41.9142C22.3359 42.0822 22.2855 42.2333 22.2519 42.4013C21.8992 43.7283 21.5969 45.1056 21.6641 46.4326C21.6976 47.222 21.8656 47.9947 22.2016 48.7337C22.3191 48.9857 22.4703 49.2376 22.6215 49.456C23.5117 50.7494 24.8891 51.5892 26.4008 52.2611L23.075 60.5251C22.8398 61.1466 22.4367 61.6505 21.9328 61.9697C21.1937 62.4568 20.1187 62.4232 19.0605 62.4064C18.8926 62.4064 18.7078 62.4064 18.5398 62.3896C18.0191 62.3896 17.532 62.7423 17.4144 63.2798C17.2801 63.7837 17.5488 64.3212 18.0359 64.5564ZM23.5285 42.7205C23.6125 42.3845 23.7133 42.0486 23.8141 41.7126C23.9484 41.7798 24.0828 41.847 24.2172 41.931C25.0906 42.4013 26.0144 42.8716 27.0894 42.8716H27.207C28.198 42.838 29.0547 42.3677 29.8945 41.931C30.7344 41.4775 31.507 41.0408 32.2965 41.2087C32.7836 41.3095 33.2371 41.6287 33.7242 41.9646C34.2281 42.3173 34.7488 42.6869 35.3871 42.8884C35.7062 42.9724 36.0254 43.0228 36.3613 43.0228C37.4699 43.0228 38.5113 42.5357 39.5023 42.0654C39.7039 41.9646 39.9055 41.8806 40.0902 41.7966C40.4598 41.6287 40.8293 41.5111 41.1988 41.4439C41.1652 41.5111 41.1484 41.5951 41.1148 41.6622C40.9133 42.1662 40.7117 42.6701 40.5102 43.1908C40.443 43.3755 40.359 43.5435 40.2918 43.7283C40.107 44.1818 39.9223 44.6185 39.7207 45.072C39.6535 45.2232 39.5863 45.3912 39.5191 45.5423C39.284 46.0798 39.032 46.6173 38.7801 47.1716C38.6793 47.3732 38.5953 47.558 38.4945 47.7595C38.2594 48.2298 38.0242 48.7001 37.7891 49.1537C37.7387 49.2544 37.6883 49.3552 37.6379 49.456C37.0836 50.4974 36.5461 51.4212 35.7566 52.0091C35.0512 52.5298 34.2113 52.7818 33.1531 52.7818C31.6246 52.7818 29.9449 52.2275 28.5004 51.69C26.4848 50.9341 24.4523 50.0439 23.5285 48.4146C23.4781 48.3306 23.4277 48.2466 23.3773 48.1626C23.159 47.7091 23.0414 47.222 22.991 46.7349C22.8566 45.3912 23.1758 43.9802 23.5285 42.7205ZM27.6941 31.1642C30.1633 32.1216 39.4855 35.6994 42.9961 36.8415C42.6937 37.6142 42.4082 38.3701 42.1227 39.1259C42.0051 39.4283 41.8875 39.7306 41.7699 40.033C41.0644 40.0665 40.3086 40.2345 39.5863 40.5537C39.3848 40.6376 39.1664 40.7384 38.9648 40.8392C38.0914 41.2423 37.2012 41.679 36.3781 41.679C36.1598 41.679 35.975 41.6455 35.7734 41.5951C35.3367 41.4607 34.9336 41.1751 34.4969 40.8728C33.9258 40.4529 33.3211 40.033 32.5484 39.8818C32.3637 39.8482 32.1621 39.8314 31.9773 39.8314C30.9863 39.8314 30.1129 40.3017 29.273 40.7552C28.5508 41.1415 27.8621 41.5111 27.1734 41.5447H27.1062C26.3672 41.5447 25.6281 41.1583 24.8555 40.7552C24.6539 40.6544 24.4355 40.5369 24.2172 40.4361C25.1074 37.4966 26.3168 34.3052 27.6941 31.1642ZM22.6551 63.0615C23.3773 62.5744 23.9484 61.8689 24.2844 60.9954L27.6101 52.7482C27.7445 52.7986 27.8957 52.8658 28.0301 52.9162C28.2652 53.0001 28.5004 53.0841 28.7355 53.1681L27.0726 57.7201C26.9719 57.9888 26.8711 58.2576 26.7535 58.5599C26.0648 60.3404 25.1914 62.5576 25.9473 64.3212C26.2832 65.1275 26.9383 65.9505 27.9125 66.8072C27.6437 66.7232 27.3918 66.656 27.1902 66.5888C25.0234 65.9001 22 64.8755 19.3629 63.6997C20.4883 63.7333 21.6976 63.6997 22.6551 63.0615Z" fill="#00528C"/>
<path d="M44.5042 45.762L43.1889 45.5865L42.7178 49.1161L44.0331 49.2916L44.5042 45.762Z" fill="#00528C"/>
<path d="M45.9355 45.3576C47.6152 48.0619 49.1773 50.8669 50.5715 53.7392L51.7641 53.1513C50.3531 50.2623 48.7574 47.39 47.0609 44.6689L45.9355 45.3576Z" fill="#00528C"/>
<path d="M37.142 29.7113L34.5432 27.1555L33.6127 28.1016L36.2115 30.6574L37.142 29.7113Z" fill="#00528C"/>
<path d="M40.0062 30.9458L41.2996 30.6603C41.182 30.1228 41.0476 29.6021 40.9301 29.0814C40.5437 27.4521 40.191 25.9236 39.8719 24.0591L38.5617 24.2775C38.8808 26.1755 39.2672 27.8048 39.6367 29.3837C39.7711 29.8876 39.8887 30.4083 40.0062 30.9458Z" fill="#00528C"/>
</svg>
