<svg width="87" height="87" viewBox="0 0 87 87" fill="none" xmlns="http://www.w3.org/2000/svg">
<path d="M18.1199 68.4701C21.7313 70.8048 25.8465 71.9638 30.0457 71.9638C34.3121 71.9638 38.6457 70.7544 42.6098 68.3525C44.2055 69.629 46.0531 70.5529 48.1191 71.0568C50.5211 71.6615 53.427 72.031 56.316 72.031C60.0113 72.031 63.6898 71.4095 66.327 69.8642C75.0277 64.7579 78.5551 51.0853 73.7176 41.1751C71.1813 36.0017 66.0918 32.3736 60.0785 31.3154C60.1121 31.2818 60.1625 31.2482 60.1961 31.2146L60.2297 31.2314L60.2633 31.1642C60.5152 30.9626 60.784 30.7611 60.9856 30.5763C62.4133 29.3837 63.1188 28.6279 64.1602 27.5025L64.832 26.7802L64.3617 26.3267C63.8914 25.89 63.673 25.554 63.3875 25.1509C63.2363 24.9158 63.0684 24.6638 62.8332 24.3783L62.6316 24.1263L54.166 23.9415C53.8301 23.9415 53.3262 23.9247 52.9063 23.9247H51.8816L51.6969 24.2607C51.6129 24.4119 50.8738 25.7556 50.6555 26.4779L50.5547 26.8306L50.7898 27.0994C51.5457 27.9728 52.4191 28.8126 53.259 29.6189C53.7461 30.0892 54.2332 30.5595 54.6867 31.0298C53.4941 31.1138 52.3184 31.2986 51.193 31.5841C48.2199 32.3568 45.566 33.7509 43.2816 35.7329C42.0891 34.7923 40.7789 33.9693 39.4016 33.2974C32.3805 29.938 24.1836 30.9122 18.5063 35.7833C12.8457 40.6376 10.091 49.0361 11.4852 57.1658C11.9723 60.1388 13.484 65.497 18.1199 68.4701ZM57.3742 31.0298C57.0551 31.013 56.7527 31.013 56.4504 31.013C56.316 30.8619 56.148 30.7107 56.0137 30.5427C56.4336 29.8036 56.9039 29.0982 57.4414 28.4599C57.8781 29.1822 58.382 29.8708 58.9195 30.5259C58.6676 30.7275 58.4492 30.8954 58.2981 30.9962C58.0965 30.9962 57.7941 31.013 57.4414 31.013C57.4246 31.0298 57.391 31.0298 57.3742 31.0298ZM56.0473 26.5619C55.7785 26.1419 55.493 25.7388 55.2074 25.3189L59.8266 25.4197C59.5074 25.9068 59.1547 26.3939 58.8188 26.7634C57.9285 26.7802 57.0551 26.7802 56.1648 26.7634L56.0473 26.5619ZM60.1289 29.5685C60.0785 29.6189 60.0113 29.6693 59.9441 29.7197C59.5074 29.199 59.1211 28.6447 58.7516 28.0736C59.793 28.0568 60.8344 28.04 61.8758 27.9896C61.3719 28.4935 60.868 28.9638 60.1289 29.5685ZM62.2621 25.9068C62.4301 26.1419 62.598 26.3939 62.7996 26.6458C62.0438 26.6794 61.2711 26.713 60.5152 26.7298C60.8176 26.3099 61.1199 25.8564 61.3551 25.4365L61.943 25.4533C62.0773 25.6044 62.1781 25.7556 62.2621 25.9068ZM52.6543 25.2853H52.8895C53.1078 25.2853 53.3598 25.2853 53.5949 25.2853C53.9309 25.7724 54.25 26.2427 54.5691 26.7298C53.7461 26.713 52.9231 26.6794 52.1 26.629C52.0832 26.6122 52.0664 26.5954 52.0496 26.5786C52.2008 26.1755 52.4695 25.6548 52.6543 25.2853ZM54.166 28.7119C53.9309 28.4767 53.6789 28.2415 53.4438 28.0064C54.3172 28.04 55.1906 28.0568 56.0641 28.0736C55.6945 28.5439 55.3586 29.0478 55.0395 29.5685C54.7539 29.2661 54.4516 28.9974 54.166 28.7119ZM51.5289 32.9111C53.0574 32.5079 54.6867 32.3232 56.3496 32.3232C56.5848 32.34 56.8367 32.34 57.1727 32.34C57.2566 32.34 57.3238 32.34 57.391 32.34C64.0426 32.6927 69.8375 36.2872 72.5082 41.763C77.0602 51.0853 73.7848 63.9517 65.6383 68.7388C61.4391 71.2079 53.7965 71.124 48.4047 69.7802C44.1383 68.7052 40.8797 65.749 38.9816 61.2306C37.7219 58.224 37.1172 54.915 37.2516 51.6564C37.4027 47.8603 38.4945 44.2322 40.4262 41.1415C40.7453 41.4607 41.0477 41.7798 41.3332 42.1158C41.7867 42.6533 42.173 43.2244 42.5426 43.829C41.9043 45.1392 41.4172 46.5333 41.1148 48.0283C41.0813 48.1626 41.0645 48.297 41.0309 48.4482C40.2246 52.9665 40.9973 57.4513 43.1641 60.7771C46.2043 65.4466 51.4617 67.0759 55.9633 67.0759C56.6352 67.0759 57.2902 67.0423 57.9117 66.9751C63.6059 66.3536 68.225 62.4568 69.9551 56.7962C71.7691 50.8501 71.0301 42.9556 65.2856 38.7732C60.9856 35.6322 55.9129 36.1025 51.5121 36.8079C49.6477 37.0935 47.9512 37.8326 46.4563 38.9747C45.8012 38.1517 45.0789 37.379 44.2895 36.6736C46.4059 34.8763 48.8246 33.6165 51.5289 32.9111ZM37.7723 61.7345C38.0578 62.4064 38.3602 63.0279 38.6961 63.6326C33.0691 66.8911 24.3684 66.824 19.8668 61.449C17.5152 58.6439 16.5074 54.7974 17.0785 50.6318C17.7168 45.9119 20.2867 41.3599 23.6629 39.0251C28.2652 35.8337 34.8832 36.472 39.4688 40.2345C37.3355 43.5603 36.1262 47.474 35.975 51.5892C35.807 55.0494 36.4453 58.5599 37.7723 61.7345ZM42.341 48.6665C42.3578 48.5322 42.3914 48.4146 42.4082 48.2802C42.6098 47.2388 42.9289 46.2478 43.3152 45.2904C45.2469 49.4896 45.3645 54.6294 43.4664 58.5767C42.1227 55.738 41.7027 52.2275 42.341 48.6665ZM47.9848 41.1919C47.7496 40.7888 47.5145 40.4025 47.2457 40.0161C48.5727 39.0083 50.0844 38.3533 51.7305 38.1013C55.8793 37.4462 60.6328 36.9927 64.5297 39.8314C69.7535 43.6275 70.3918 50.8837 68.7121 56.3931C67.1332 61.5497 62.9508 65.0939 57.7941 65.6482C54.7371 65.9841 50.9914 65.497 47.9344 63.599C49.6813 61.0626 50.6555 57.5857 50.773 53.4872C50.857 50.2454 50.4539 45.4751 47.9848 41.1919ZM19.3629 36.8415C24.6539 32.3064 32.2797 31.3994 38.8305 34.5404C42.2402 36.1697 45.0789 38.7732 46.8594 41.847C49.1773 45.8615 49.5469 50.3798 49.4629 53.4536C49.3453 57.2833 48.4551 60.5083 46.8594 62.8431C45.902 62.0872 45.0285 61.1634 44.2895 60.0548C44.2727 60.0212 44.2559 60.0044 44.2391 59.9708C47.4305 54.3943 46.6578 46.4326 42.3578 41.2591C37.4531 35.3634 28.7188 33.8685 22.8902 37.9333C19.1781 40.5201 16.4402 45.3072 15.7516 50.4638C15.1469 54.999 16.2387 59.1982 18.8422 62.3056C21.6641 65.665 25.9473 67.1431 30.2473 67.1431C33.4891 67.1431 36.7477 66.2865 39.368 64.7747C40.023 65.7658 40.7453 66.656 41.5516 67.4454C34.1945 71.7119 25.5777 71.7286 18.8254 67.3783C14.6262 64.674 13.232 59.7357 12.7617 57.0314C11.4684 49.3216 14.0551 41.4103 19.3629 36.8415Z" fill="#00528C"/>
<path d="M58.0965 21.6068C58.2981 20.3974 58.3653 19.1712 58.2981 17.9619L56.9711 18.0291C57.0383 19.1544 56.9711 20.2798 56.7863 21.3716L58.0965 21.6068Z" fill="#00528C"/>
<path d="M64.4121 17.4412L62.0438 21.758L63.1692 22.4466L63.4883 21.9595L63.4547 21.9427L65.5711 18.0794L64.4121 17.4412Z" fill="#00528C"/>
<path d="M52.7128 21.7972L50.5002 17.552L49.3234 18.1653L51.536 22.4105L52.7128 21.7972Z" fill="#00528C"/>
</svg>
