<svg width="87" height="87" viewBox="0 0 87 87" fill="none" xmlns="http://www.w3.org/2000/svg">
<path d="M53.9982 27.788C46.6075 27.4185 39.0825 27.4017 31.6919 27.7208C30.5497 27.7712 29.6427 28.6951 29.5923 29.8372C29.4747 33.2302 29.5587 36.2201 29.6595 39.1259C29.7435 42.0318 29.8443 45.0384 29.7267 48.4818C29.6931 49.6912 30.6001 50.699 31.7759 50.7494C35.4376 50.8837 38.5786 50.9341 41.6357 50.9341C45.163 50.9341 48.8919 50.8501 53.7462 50.6654C53.8134 50.6654 53.8974 50.6654 53.9646 50.6654C54.4349 50.6654 55.0564 50.6654 55.5099 50.1447C55.8962 49.6912 55.913 49.1033 55.913 48.7505C55.9466 45.4751 55.9802 42.2501 55.997 39.0419L56.081 30.0052C56.0978 28.8126 55.174 27.8384 53.9982 27.788ZM54.67 39.0251C54.6365 42.2501 54.6197 45.4583 54.5861 48.7337C54.5861 48.8849 54.5861 49.1873 54.5021 49.288C54.4517 49.3552 54.1325 49.3552 53.9478 49.3552C53.8638 49.3552 53.763 49.3552 53.679 49.3552C48.8415 49.54 45.1294 49.624 41.6189 49.624C38.5618 49.624 35.4544 49.5568 31.8095 49.4392C31.3728 49.4224 31.02 49.0193 31.0368 48.5322C31.1544 45.0552 31.0704 42.0318 30.9697 39.0923C30.8857 36.2201 30.7849 33.247 30.9025 29.8876C30.9193 29.4341 31.2888 29.0646 31.7255 29.0478C35.2025 28.8966 38.713 28.8126 42.19 28.8126C46.0868 28.8126 50.0341 28.9134 53.9142 29.0982C54.3845 29.115 54.7372 29.5013 54.7372 29.9716L54.67 39.0251Z" fill="#00528C"></path>
<path d="M23.5286 60.5083L23.7469 61.0794L24.3348 60.9115C26.0817 60.3908 27.9126 59.8365 29.8946 59.215C32.2294 59.2822 34.6481 59.3158 37.2684 59.3326C42.3579 61.6505 47.1618 63.6997 52.2512 65.8497C54.8715 66.9583 57.5255 68.1005 60.2969 69.2931C60.4481 69.3603 60.6161 69.3771 60.7672 69.3771C60.8848 69.3771 60.9856 69.3603 61.12 69.3267C61.6071 69.1587 61.7919 68.722 61.8926 68.5372C62.8333 66.4376 66.1926 58.5599 69.1489 51.6228C71.8028 45.3744 74.3223 39.4787 74.7255 38.6052L74.9942 38.0341L74.4231 37.7486C68.9473 34.9603 63.8915 32.6087 59.2051 30.4755C59.1883 27.788 59.1883 25.8396 59.1883 25.3525L59.2051 24.7142L58.5669 24.6806C53.8973 24.3951 49.5301 24.2439 45.1797 24.1431C44.3399 21.6908 43.584 19.44 43.4161 18.9193L43.2313 18.3146L42.6098 18.4826C35.1688 20.4646 28.6516 22.5306 21.7481 24.731C18.8087 25.6716 15.7516 26.629 12.6274 27.6033L12.0059 27.788L12.1907 28.4095C15.2477 38.6052 17.9016 45.6263 21.2442 54.5119C21.9833 56.3931 22.7391 58.3919 23.5286 60.5083ZM26.8208 49.8927C26.2497 50.0607 25.6786 50.2287 25.0739 50.4134C24.654 50.531 24.1837 50.2455 24.0661 49.8087C23.0751 46.4662 22.0337 43.6275 21.0258 40.8728C20.0348 38.1685 19.0102 35.3802 18.0528 32.172C17.9184 31.7353 18.1536 31.265 18.5735 31.1138C21.2106 30.106 23.8645 29.1318 26.468 28.2415C26.4512 29.2158 26.4344 30.1564 26.4344 31.0802C26.4344 31.1138 26.4344 31.1474 26.4344 31.181C26.4344 31.8361 26.4344 32.4912 26.4344 33.1294C26.4344 33.2302 26.4344 33.3478 26.4344 33.4486C26.4344 33.5997 26.4344 33.7509 26.4344 33.9021C26.4344 33.9189 26.4344 33.9357 26.4344 33.9525C26.4344 34.0869 26.4344 34.2044 26.4344 34.3388C26.4344 34.6076 26.4344 34.8763 26.4344 35.1451C26.4344 35.3634 26.4344 35.5818 26.4344 35.8001C26.4344 36.0353 26.4344 36.2872 26.4344 36.5224C26.4344 36.6232 26.4344 36.724 26.4344 36.8247C26.4344 36.8415 26.4344 36.8583 26.4344 36.8751C26.4344 37.0263 26.4344 37.1607 26.4344 37.3119C26.4344 37.799 26.4512 38.2861 26.4512 38.7732C26.4512 38.79 26.4512 38.8068 26.4512 38.8068C26.4512 38.9412 26.4512 39.0755 26.4512 39.2099C26.4512 39.2771 26.4512 39.3443 26.4512 39.3947C26.468 40.2177 26.4848 41.0408 26.5016 41.8638C26.5016 41.8806 26.5016 41.8974 26.5016 41.9142C26.5184 42.7204 26.552 43.5435 26.5688 44.3665C26.5688 44.4337 26.5688 44.5177 26.5688 44.5849C26.5856 45.3576 26.6192 46.147 26.6528 46.9365C26.6528 47.0876 26.6696 47.222 26.6696 47.3732C26.7032 48.0955 26.72 48.8345 26.7536 49.5736C26.804 49.6576 26.804 49.7751 26.8208 49.8927ZM59.2387 35.6658C62.3294 37.0431 65.4032 38.4876 68.393 39.9658C68.813 40.1673 68.9809 40.6712 68.7962 41.1079C67.1837 44.7193 65.6215 48.2298 64.0258 51.774L61.1368 58.2408C61.0864 58.3583 60.952 58.6439 60.8512 58.7111C60.8512 58.7111 60.8512 58.7111 60.8176 58.7111C60.7001 58.7111 60.4985 58.6271 60.3137 58.5431C60.2297 58.5095 60.1458 58.4759 60.0618 58.4423C59.8098 58.3415 59.5747 58.2576 59.3227 58.1568V58.14V58.1232C59.3227 58.1064 59.3227 58.0896 59.3227 58.0728C59.3227 58.0224 59.3227 57.9552 59.3395 57.9216C59.3395 57.7872 59.3395 57.6193 59.3395 57.4345C59.3395 57.065 59.3395 56.6115 59.3395 56.0908C59.3395 52.681 59.2891 46.2142 59.2387 39.9322V39.8482V35.6658ZM73.2641 38.622C72.4747 40.4193 70.3415 45.4247 67.9227 51.1021C64.9665 58.0392 61.6239 65.9001 60.6833 67.9997C60.6833 67.9997 60.6833 68.0165 60.6665 68.0165C57.9622 66.8408 55.3419 65.7322 52.7551 64.6404C48.5895 62.8767 44.6087 61.1802 40.5102 59.3494C43.5337 59.3494 46.5235 59.3158 49.5469 59.299C52.3688 59.2822 55.2243 59.2486 58.1973 59.2486C58.2141 59.2486 58.2477 59.2486 58.2645 59.2318C58.3149 59.2318 58.3653 59.215 58.4157 59.215C58.802 59.3662 59.1883 59.5173 59.5915 59.6685C59.6587 59.7021 59.7258 59.7189 59.793 59.7525C60.0954 59.8869 60.4313 60.0212 60.8176 60.0212C61.036 60.0212 61.2376 59.9708 61.4223 59.8869C61.9766 59.6181 62.2118 59.0638 62.3462 58.7615L65.2352 52.2947C66.8141 48.7505 68.393 45.2232 70.0055 41.6287C70.4758 40.5369 70.0223 39.2939 68.9809 38.7732C65.8063 37.1943 62.5309 35.6658 59.2387 34.2212L59.2219 31.9201C63.5555 33.8853 68.2419 36.0689 73.2641 38.622ZM57.8782 29.854L57.895 33.2806C57.9118 35.0611 57.9286 37.0095 57.9454 39.0587C58.0126 46.7853 58.063 55.5533 58.0462 57.888V57.9048C55.0563 57.9048 52.1505 57.9384 49.295 57.9552C46.6411 57.972 44.0376 57.9888 41.4005 58.0056C40.3255 58.0056 39.2505 58.0056 38.1587 58.0056C34.6313 57.9888 31.4903 57.9384 28.4501 57.8376C28.3829 55.7548 28.2989 53.7896 28.2317 51.8915C28.1309 49.1537 28.0301 46.5837 27.9462 44.0474C27.9462 43.7954 27.9294 43.5435 27.9294 43.3083C27.9294 43.258 27.9294 43.1908 27.9294 43.1404C27.7782 38.0677 27.711 33.1126 27.8454 27.3345C27.8622 26.629 27.879 25.9068 27.8958 25.1677C29.3571 25.2013 30.7848 25.2181 32.1958 25.2517C32.4141 25.2517 32.6493 25.2517 32.8676 25.2685C33.7747 25.2853 34.6985 25.3021 35.5887 25.3021L41.3837 25.3861C42.4922 25.4029 43.6008 25.4197 44.7094 25.4533L45.6501 25.4701C49.6141 25.554 53.6286 25.7052 57.8614 25.9572C57.8614 26.7298 57.8614 28.1072 57.8782 29.854ZM43.7856 24.0927C43.1473 24.0759 42.4922 24.0591 41.854 24.0591C41.4172 23.1185 40.3422 22.581 39.284 22.8665C37.9403 23.2361 36.7141 23.6056 35.5047 23.9583C35.1856 23.9583 34.8665 23.9415 34.5473 23.9415C32.8508 23.9247 31.1376 23.8912 29.3907 23.8576C29.2059 23.8576 29.0212 23.8576 28.8364 23.8408C33.2204 22.4802 37.6044 21.1533 42.3579 19.8935C42.6266 20.7165 43.1305 22.1779 43.7856 24.0927ZM22.1512 25.9572C23.6294 25.4869 25.0907 25.0165 26.552 24.563C26.5352 25.3357 26.5016 26.0915 26.4848 26.8306C23.7133 27.7712 20.8915 28.779 18.0864 29.8708C17.0282 30.274 16.4571 31.4497 16.7762 32.5415C17.7337 35.8001 18.7751 38.6052 19.7661 41.3263C20.7739 44.0642 21.8153 46.8861 22.7895 50.1783C23.0583 51.1189 23.9149 51.7572 24.8723 51.7572C25.0739 51.7572 25.2587 51.7236 25.4434 51.6732C25.9305 51.5388 26.4008 51.3876 26.8712 51.2533C26.9047 52.2275 26.9551 53.2185 26.9887 54.2431C26.9887 54.2935 26.9887 54.3439 26.9887 54.3943C27.0391 55.7212 27.0895 57.0818 27.1399 58.5095V58.6775C26.2497 58.9462 25.3762 59.215 24.5364 59.4669C23.8309 57.5689 23.1422 55.7548 22.4872 54.0247C19.2118 45.3408 16.6083 38.454 13.652 28.6447C16.5747 27.7376 19.4133 26.8306 22.1512 25.9572Z" fill="#00528C"></path>
</svg>
